<svg width="81" height="86" viewBox="0 0 81 86" fill="none" xmlns="http://www.w3.org/2000/svg">
    <path d="M45.5098 60.0792H35.5098V55.0792H30.5098V50.0792H25.5098V40.0792H30.5098V35.0792H35.5098V30.0792H45.5098V35.0792H50.5098V40.0792H55.5098V50.0792H50.5098V55.0792H45.5098V60.0792ZM60.5098 85.0792H20.5098V80.0792H15.5098V75.0792H10.5098V70.0792H5.50977V65.0792H0.509766V25.0792H5.50977V20.0792H10.5098V15.0792H15.5098V10.0792H20.5098V5.07916H60.5098V10.0792H65.5098V15.0792H70.5098V20.0792H75.5098V25.0792H80.5098V65.0792H75.5098V70.0792H70.5098V75.0792H65.5098V80.0792H60.5098V85.0792ZM45.5098 50.0792V40.0792H35.5098V50.0792H45.5098ZM55.5098 75.0792V70.0792H60.5098V65.0792H65.5098V60.0792H70.5098V30.0792H65.5098V25.0792H60.5098V20.0792H55.5098V15.0792H25.5098V20.0792H20.5098V25.0792H15.5098V30.0792H10.5098V60.0792H15.5098V65.0792H20.5098V70.0792H25.5098V75.0792H55.5098Z"
          fill="#FE8A73"/>
    <path d="M45.5098 55H35.5098V50H30.5098V45H25.5098V35H30.5098V30H35.5098V25H45.5098V30H50.5098V35H55.5098V45H50.5098V50H45.5098V55ZM60.5098 80H20.5098V75H15.5098V70H10.5098V65H5.50977V60H0.509766V20H5.50977V15H10.5098V10H15.5098V5H20.5098V0H60.5098V5H65.5098V10H70.5098V15H75.5098V20H80.5098V60H75.5098V65H70.5098V70H65.5098V75H60.5098V80ZM45.5098 45V35H35.5098V45H45.5098ZM55.5098 70V65H60.5098V60H65.5098V55H70.5098V25H65.5098V20H60.5098V15H55.5098V10H25.5098V15H20.5098V20H15.5098V25H10.5098V55H15.5098V60H20.5098V65H25.5098V70H55.5098Z"
          fill="#FFF4D8"/>
</svg>
